<?xml version="1.0" encoding="utf-8"?>
<!-- Generator: Adobe Illustrator 22.0.0, SVG Export Plug-In . SVG Version: 6.00 Build 0)  -->
<svg version="1.1" id="Layer_1" xmlns="http://www.w3.org/2000/svg" xmlns:xlink="http://www.w3.org/1999/xlink" x="0px" y="0px"
	 viewBox="0 0 605.7 884.3" style="enable-background:new 0 0 605.7 884.3;" xml:space="preserve">
<style type="text/css">
	.st0{fill:#E71E25;}
	.st1{fill:#4A4EA1;}
	.st2{fill:#FDB92A;stroke:#000000;stroke-width:2;stroke-miterlimit:10;}
	.st3{fill:#9BDBF5;stroke:#000000;stroke-width:2;stroke-miterlimit:10;}
	.st4{fill:#ECE70C;stroke:#000000;stroke-width:2;stroke-miterlimit:10;}
	.st5{fill:#6DBE45;}
	.st6{fill:#F282B4;stroke:#000000;stroke-width:2;stroke-miterlimit:10;}
</style>
<image style="overflow:visible;enable-background:new    ;" width="2583" height="4184" xlink:href="phone.png"  transform="matrix(0.24 0 0 0.24 0 -47)">
</image>
<g>
	<path class="st0" d="M347.5,180.1c5.9-4-8.8-35.9-0.7-39.7c2.9-1.3,54.4-2.3,58.2-3.3c1.9-0.5-0.9,23.2,1.3,22.6
		c2.1-0.3,22.8-4.3,27.4,1.6c3.9,4.7-2.3,19.3,1.9,20.5c14.1,3.9,27.7-9.6,22-16.8c-4-2.7-3.6-31.1,0-41.1l-15.4-47.7l-26-20.2H374
		l-14.5,31.1l-41.1,6l-6.5,37.9l-23.3,43.7l1.2,6.1c1.5-0.4,2.9-0.7,4.3-1.1C311.3,175.8,339,186,347.5,180.1z"/>
	<path class="st1" d="M522.5,161.6l-10-18.2l-51-7.3l-3.9-12.1c-3.5,10.1-4,38.5,0,41.1c9.3,12-12.6,15.4-22,16.8
		c-2.3,0.4,0.3-20.9-1.9-20.5c-7.1,1.2-21-2.4-27.4-1.6c-3.5,0.4,2.1-22.9-1.3-22.6c-14.8,1.2-42.5,4.3-58.2,3.3
		c-3.5-0.3,4.3,39.9,0.7,39.7c-17.3,0-36.2-4.3-53.5-0.3c-1.5,0.4-2.9,0.7-4.3,1.1l5.5,27.6l52,2.3v27.7h62.6l-13.6,40.7l29.8,25.8
		h34.3l-7.5-26.5l24.1-12.6l32.6,12.2l12.8-61l12.8-16L522.5,161.6z"/>
	<polygon class="st2" points="490.4,290.3 501.6,278.8 509.7,277.9 477.1,265.6 458.8,275.4 462.8,300.8 458.8,338.1 467.5,370.1 
		474.5,383.2 492.3,372.9 484.2,341.1 498.4,342.4 486.7,321 	"/>
	<polygon class="st3" points="532.5,440.3 506.3,446.3 484.2,429.5 490.4,423 473.1,389.3 474.5,383.2 492.3,372.9 484.2,341.1 
		498.4,342.4 517.1,349.5 529.7,378.8 519.9,405.7 542.4,420.2 	"/>
	<polygon class="st4" points="542.9,464.2 532.8,440.5 506.4,446.4 508,457.3 461.7,476.9 461.7,513.9 384.5,490.7 384.5,541.8 
		347.2,541.8 347,759.9 417.9,744.7 473.1,682.1 493.6,613.2 530.8,556.7 546.6,529.3 	"/>
	<polygon class="st5" points="321.4,755.3 347,760 347.2,541.8 384.5,541.8 384.5,491.3 461.7,513.9 461.7,476.6 508,457.3 
		506.4,446.4 484.2,429.5 490.4,423 473.1,389.4 474.5,383.4 464.4,383.4 452.4,378.8 403.4,369.6 405.8,287.3 396.2,279.1 
		409.8,238.4 347.2,238.4 347.2,210.4 295.2,208.4 278.1,199.5 262.3,238.8 243.7,265.6 224.5,283.5 210,328.9 214.1,428.7 
		217.6,493.5 232.1,519.6 226.9,542.4 250.1,578.8 250.1,616.4 250.6,634.6 232.1,644.9 272.7,727.5 	"/>
	<polygon class="st6" points="469.8,381 455.2,380 403.4,369.6 405.7,287.3 426,304.9 461.7,304.9 458.8,338.1 474.5,383.4 	"/>
</g>
</svg>
